# xmcd
#
# Track frame offsets:
#	150
#	14973
#	35063
#	49162
#	65323
#	79757
#	92518
#	104779
#	119714
#	134091
#	147996
#	160897
#	176528
#	193776
#	208544
#	221696
#	234736
#	245798
#	263520
#	275557
#	289600
#	307294
#	319247
#	333987
#
# Disc length: 4604 seconds
#
# Revision: 4
# Processed by: cddbd v1.5.2PL0 Copyright (c) Steve Scherf et al.
# Submitted via: audiograbber 1.83.01
#
DISCID=8711fa18
DTITLE=Various Artist - Triomphes du Blues 20, From Blues to Jazz
DYEAR=2001
DGENRE=Blues
TTITLE0=Louis Armstrong - Back 'o town blues - 1946
TTITLE1=Sidney Bechet - Blue horizon - 1944
TTITLE2=Duke Ellington - Black and tan fantasy - 1927
TTITLE3=Tommy Ladmier - Really the blues - 1938
TTITLE4=Count Basie - Good morning blues - 1937
TTITLE5=Jelly Roll Morton - Mamie's blues - 1939
TTITLE6=Jimmie Noone - It's tight like that - 1928
TTITLE7=Erskine Hawkins - After hours - 1940
TTITLE8=Dicky Wells - Dicky wells blues - 1937
TTITLE9=Rex Stewart - Solid old man - 1939
TTITLE10=Johnny Hodges - Jeep's blues - 1938
TTITLE11=Meade Lux Lewis - Whistlin' blues - 1937
TTITLE12=Kansas City Six - Pagin' the devil - 1939
TTITLE13=Muggsy Spanier - Relaxin' at the touro - 1939
TTITLE14=Jimmy Lunceford - Uptown blues - 1939
TTITLE15=Erroll Garner - Frankie and Johnny - 1947
TTITLE16=Illinois Jacquet - Illinois blows the blues - 1947
TTITLE17=Hot Lips Page - Blues with lips - 1938
TTITLE18=Django Reinhardt - Saint Louis blues - 1937
TTITLE19=Charlie Parker - Cool blues - 1947
TTITLE20=Lester Young - Back to the land - 1946
TTITLE21=Oscar Pettiford - Blues for Blanton - 1950
TTITLE22=Thelonious Monk - Misterioso - 1948
TTITLE23=Sonny Stitt - Bud's blues - 1949
EXTD=YEAR: 2001
EXTT0=
EXTT1=
EXTT2=
EXTT3=
EXTT4=
EXTT5=
EXTT6=
EXTT7=
EXTT8=
EXTT9=
EXTT10=
EXTT11=
EXTT12=
EXTT13=
EXTT14=
EXTT15=
EXTT16=
EXTT17=
EXTT18=
EXTT19=
EXTT20=
EXTT21=
EXTT22=
EXTT23=
PLAYORDER=
